<svg width="16" height="16" viewBox="0 0 16 16" fill="none" xmlns="http://www.w3.org/2000/svg">
<g id="Icon" clip-path="url(#clip0_1_230)">
<path id="Vector" d="M8.152 16H8C5.88495 15.9799 3.86393 15.123 2.37899 13.6168C0.894047 12.1105 0.0660473 10.0775 0.0760944 7.96237C0.0861415 5.84724 0.933417 3.82217 2.4326 2.33009C3.93178 0.838013 5.96086 0.000366211 8.076 0.000366211C10.1912 0.000366211 12.2202 0.838013 13.7194 2.33009C15.2186 3.82217 16.0659 5.84724 16.0759 7.96237C16.086 10.0775 15.258 12.1105 13.773 13.6168C12.2881 15.123 10.2671 15.9799 8.152 16ZM7.742 1.79801C7.516 2.07101 7.279 2.51101 7.065 3.12101C6.696 4.17601 6.439 5.61701 6.378 7.25001H9.925C9.865 5.61701 9.607 4.17601 9.238 3.12101C9.025 2.51101 8.788 2.07101 8.562 1.79801C8.368 1.56301 8.236 1.51301 8.177 1.50201H8.133C8.078 1.50901 7.943 1.55401 7.742 1.79801ZM4.877 7.25001C4.939 5.47901 5.217 3.86401 5.65 2.62601C5.749 2.34201 5.858 2.07201 5.979 1.82001C4.79833 2.20711 3.75317 2.92417 2.96707 3.88641C2.18098 4.84865 1.68682 6.01584 1.543 7.25001H4.877ZM1.543 8.75C1.68682 9.98417 2.18098 11.1514 2.96707 12.1136C3.75317 13.0758 4.79833 13.7929 5.979 14.18C5.8544 13.9176 5.74424 13.6485 5.649 13.374C5.216 12.136 4.939 10.521 4.877 8.75H1.543ZM6.378 8.75C6.439 10.383 6.696 11.824 7.065 12.879C7.279 13.489 7.516 13.929 7.742 14.202C7.944 14.446 8.078 14.492 8.133 14.499L8.177 14.498C8.237 14.488 8.367 14.437 8.562 14.202C8.788 13.929 9.025 13.489 9.238 12.879C9.608 11.824 9.864 10.383 9.925 8.75H6.378ZM11.426 8.75C11.365 10.521 11.087 12.136 10.654 13.374C10.572 13.609 10.483 13.834 10.386 14.048C11.4802 13.6155 12.4367 12.8945 13.1536 11.9615C13.8704 11.0286 14.3209 9.91867 14.457 8.75H11.427H11.426ZM14.457 7.25001C14.3208 6.08137 13.8703 4.97153 13.1534 4.0386C12.4366 3.10567 11.4802 2.38455 10.386 1.95201C10.483 2.16601 10.572 2.39201 10.654 2.62601C11.087 3.86401 11.365 5.47901 11.426 7.25001H14.457Z" fill="white"/>
</g>
<defs>
<clipPath id="clip0_1_230">
<rect width="16" height="16" fill="white"/>
</clipPath>
</defs>
</svg>
