<svg width="17" height="16" viewBox="0 0 17 16" fill="none" xmlns="http://www.w3.org/2000/svg">
<g id="Icon">
<path id="Vector" d="M11.9519 0.470011C12.0923 0.610637 12.1712 0.801261 12.1712 1.00001C12.1712 1.19876 12.0923 1.38939 11.9519 1.53001L5.48188 8.00001L11.9519 14.47C12.0256 14.5387 12.0847 14.6215 12.1257 14.7135C12.1666 14.8055 12.1887 14.9048 12.1905 15.0055C12.1922 15.1062 12.1737 15.2062 12.136 15.2996C12.0983 15.393 12.0421 15.4778 11.9709 15.549C11.8997 15.6203 11.8149 15.6764 11.7215 15.7141C11.6281 15.7519 11.5281 15.7704 11.4274 15.7686C11.3267 15.7668 11.2273 15.7448 11.1353 15.7038C11.0433 15.6628 10.9605 15.6037 10.8919 15.53L3.36188 8.00001L10.8919 0.470011C11.0325 0.329561 11.2231 0.250671 11.4219 0.250671C11.6206 0.250671 11.8113 0.329561 11.9519 0.470011Z" fill="white"/>
</g>
</svg>
