<svg width="17" height="16" viewBox="0 0 17 16" fill="none" xmlns="http://www.w3.org/2000/svg">
<g id="Icon">
<path id="Vector" d="M5.89185 0.470011C5.75139 0.610637 5.67251 0.801261 5.67251 1.00001C5.67251 1.19876 5.75139 1.38939 5.89185 1.53001L12.3618 8.00001L5.89185 14.47C5.81816 14.5387 5.75906 14.6215 5.71806 14.7135C5.67707 14.8055 5.65503 14.9048 5.65325 15.0055C5.65148 15.1062 5.67 15.2062 5.70772 15.2996C5.74544 15.393 5.80159 15.4778 5.87281 15.549C5.94403 15.6203 6.02886 15.6764 6.12225 15.7141C6.21564 15.7519 6.31567 15.7704 6.41637 15.7686C6.51707 15.7668 6.61638 15.7448 6.70838 15.7038C6.80038 15.6628 6.88318 15.6037 6.95185 15.53L14.4818 8.00001L6.95185 0.470011C6.81122 0.329561 6.6206 0.250671 6.42185 0.250671C6.22309 0.250671 6.03247 0.329561 5.89185 0.470011Z" fill="white"/>
</g>
</svg>
